<svg xmlns="http://www.w3.org/2000/svg" role="img" aria-labelledby="title desc" viewBox="0 0 1040 375"><title id="title">Automatic multi-field batching</title><desc id="desc">RTX 3060 · one boolean + three-choice enum · three warm samples per size</desc><style>
:root{--text:#1a2a40;--muted:#637b92;--grid:#c9d7e4;--surface:#e8eff6;--primary:#2b6cb0;--accent:#c05050;--good:#2a7a3a;--amber:#c87020}
@media(prefers-color-scheme:dark){:root{--text:#e8d8d0;--muted:#a88f80;--grid:#59463c;--surface:#2a1e18;--primary:#e08050;--accent:#50b0a0;--good:#60c870;--amber:#e0a840}}
text{fill:var(--text);font-family:system-ui,-apple-system,BlinkMacSystemFont,"Segoe UI",sans-serif}.muted{fill:var(--muted)}.grid{stroke:var(--grid);stroke-width:1}.axis{stroke:var(--text);stroke-width:1.2}.primary{fill:var(--primary)}.accent{fill:var(--accent)}.good{fill:var(--good)}.amber{fill:var(--amber)}.surface{fill:var(--surface)}
</style><text x="40" y="42" font-size="24" font-weight="700">Automatic multi-field batching</text><text class="muted" x="40" y="67" font-size="13">RTX 3060 · one boolean + three-choice enum · three warm samples per size</text><line class="grid" x1="180.0" y1="94" x2="180.0" y2="315.0"/><text class="muted" x="180.0" y="337.0" text-anchor="middle" font-size="12">0.00 s</text><line class="grid" x1="357.5" y1="94" x2="357.5" y2="315.0"/><text class="muted" x="357.5" y="337.0" text-anchor="middle" font-size="12">0.75 s</text><line class="grid" x1="535.0" y1="94" x2="535.0" y2="315.0"/><text class="muted" x="535.0" y="337.0" text-anchor="middle" font-size="12">1.50 s</text><line class="grid" x1="712.5" y1="94" x2="712.5" y2="315.0"/><text class="muted" x="712.5" y="337.0" text-anchor="middle" font-size="12">2.25 s</text><line class="grid" x1="890.0" y1="94" x2="890.0" y2="315.0"/><text class="muted" x="890.0" y="337.0" text-anchor="middle" font-size="12">3.00 s</text><text x="165" y="125.0" text-anchor="end" font-size="14">1 entries</text><rect class="good" x="180.0" y="105.0" width="38.3" height="28" rx="4"/><text x="226.3" y="125.0" font-size="13">0.162 s</text><line class="axis" x1="217.4" y1="139.0" x2="218.4" y2="139.0"/><text class="muted" x="180.0" y="157.0" font-size="12">6.17 entries/s</text><text x="165" y="195.0" text-anchor="end" font-size="14">10 entries</text><rect class="good" x="180.0" y="175.0" width="272.0" height="28" rx="4"/><text x="460.0" y="195.0" font-size="13">1.149 s</text><line class="axis" x1="451.9" y1="209.0" x2="453.4" y2="209.0"/><text class="muted" x="180.0" y="227.0" font-size="12">8.70 entries/s</text><text x="165" y="265.0" text-anchor="end" font-size="14">25 entries</text><rect class="good" x="180.0" y="245.0" width="696.1" height="28" rx="4"/><text x="884.1" y="265.0" font-size="13">2.941 s</text><line class="axis" x1="875.4" y1="279.0" x2="876.5" y2="279.0"/><text class="muted" x="180.0" y="297.0" font-size="12">8.50 entries/s</text><text class="muted" x="40" y="363" font-size="12">Handler median with min–max line; completed measurements only; source 321e6ce</text></svg>