<svg xmlns="http://www.w3.org/2000/svg" role="img" aria-labelledby="title desc" viewBox="0 0 960 480"><title id="title">Warm HTTP latency distribution</title><desc id="desc">100 sequential requests after one warm-up; handler total_ms; RTX 3060</desc><style>
:root{--text:#1a2a40;--muted:#637b92;--grid:#c9d7e4;--surface:#e8eff6;--primary:#2b6cb0;--accent:#c05050;--good:#2a7a3a;--amber:#c87020}
@media(prefers-color-scheme:dark){:root{--text:#e8d8d0;--muted:#a88f80;--grid:#59463c;--surface:#2a1e18;--primary:#e08050;--accent:#50b0a0;--good:#60c870;--amber:#e0a840}}
text{fill:var(--text);font-family:system-ui,-apple-system,BlinkMacSystemFont,"Segoe UI",sans-serif}.muted{fill:var(--muted)}.grid{stroke:var(--grid);stroke-width:1}.axis{stroke:var(--text);stroke-width:1.2}.primary{fill:var(--primary)}.accent{fill:var(--accent)}.good{fill:var(--good)}.amber{fill:var(--amber)}.surface{fill:var(--surface)}
</style><text x="40" y="42" font-size="24" font-weight="700">Warm HTTP latency distribution</text><text class="muted" x="40" y="67" font-size="13">100 sequential requests after one warm-up; handler total_ms; RTX 3060</text><line class="grid" x1="72.0" y1="390.0" x2="912.0" y2="390.0"/><text class="muted" x="62" y="394.0" text-anchor="end" font-size="11">80</text><line class="grid" x1="72.0" y1="295.0" x2="912.0" y2="295.0"/><text class="muted" x="62" y="299.0" text-anchor="end" font-size="11">81</text><line class="grid" x1="72.0" y1="200.0" x2="912.0" y2="200.0"/><text class="muted" x="62" y="204.0" text-anchor="end" font-size="11">82</text><line class="grid" x1="72.0" y1="105.0" x2="912.0" y2="105.0"/><text class="muted" x="62" y="109.0" text-anchor="end" font-size="11">83</text><line class="axis" x1="72.0" y1="105.0" x2="72.0" y2="390.0"/><line class="axis" x1="72.0" y1="390.0" x2="912.0" y2="390.0"/><polyline fill="none" stroke="var(--primary)" stroke-width="3" points="72.00,360.54 80.48,359.72 88.97,353.36 97.45,346.30 105.94,344.82 114.42,339.83 122.91,335.36 131.39,334.38 139.88,329.47 148.36,325.94 156.85,325.32 165.33,322.72 173.82,322.17 182.30,321.48 190.79,319.54 199.27,316.79 207.76,311.94 216.24,309.71 224.73,308.13 233.21,307.50 241.70,306.50 250.18,303.97 258.67,303.75 267.15,303.68 275.64,302.70 284.12,302.67 292.61,298.33 301.09,297.60 309.58,296.49 318.06,295.60 326.55,293.11 335.03,292.03 343.52,291.60 352.00,289.56 360.48,289.34 368.97,289.32 377.45,288.68 385.94,288.42 394.42,288.23 402.91,286.74 411.39,286.51 419.88,286.18 428.36,285.84 436.85,285.68 445.33,285.25 453.82,284.95 462.30,284.86 470.79,284.13 479.27,283.54 487.76,282.32 496.24,282.16 504.73,281.52 513.21,280.88 521.70,279.90 530.18,279.89 538.67,279.50 547.15,279.16 555.64,279.06 564.12,277.74 572.61,277.36 581.09,277.35 589.58,277.12 598.06,277.11 606.55,276.22 615.03,275.63 623.52,275.20 632.00,274.87 640.48,272.75 648.97,271.77 657.45,271.74 665.94,271.38 674.42,269.53 682.91,269.37 691.39,269.34 699.88,268.72 708.36,266.40 716.85,266.06 725.33,265.83 733.82,264.89 742.30,262.95 750.79,262.37 759.27,261.75 767.76,260.91 776.24,260.63 784.73,260.57 793.21,259.00 801.70,258.35 810.18,255.73 818.67,254.18 827.15,253.71 835.64,250.04 844.12,249.73 852.61,247.82 861.09,243.93 869.58,238.98 878.06,235.05 886.55,227.65 895.03,224.93 903.52,185.99 912.00,162.82"/><line x1="72.0" y1="282.2" x2="912.0" y2="282.2" stroke="var(--good)" stroke-width="1.5" stroke-dasharray="6 5"/><text class="good" x="80.0" y="276.2" font-size="12">median 81.13 ms</text><line x1="72.0" y1="239.0" x2="912.0" y2="239.0" stroke="var(--amber)" stroke-width="1.5" stroke-dasharray="6 5"/><text class="amber" x="80.0" y="233.0" font-size="12">p95 81.59 ms</text><line x1="72.0" y1="186.0" x2="912.0" y2="186.0" stroke="var(--accent)" stroke-width="1.5" stroke-dasharray="6 5"/><text class="accent" x="80.0" y="180.0" font-size="12">p99 82.15 ms</text><text class="muted" x="492.0" y="420" text-anchor="middle" font-size="12">request rank (sorted)</text><text class="muted" x="18" y="247.5" text-anchor="middle" transform="rotate(-90 18 247.5)" font-size="12">milliseconds</text><text class="muted" x="40" y="455" font-size="11">min 80.31 · median 81.13 · p95 81.59 · p99 82.15 · max 82.39 ms</text></svg>